<?xml version="1.0" standalone="no"?>
<!DOCTYPE svg PUBLIC "-//W3C//DTD SVG 20010904//EN"
 "http://www.w3.org/TR/2001/REC-SVG-20010904/DTD/svg10.dtd">
<svg version="1.0" xmlns="http://www.w3.org/2000/svg"
 width="100.000000pt" height="32.000000pt" viewBox="0 0 100.000000 32.000000"
 preserveAspectRatio="xMidYMid meet">

<g transform="translate(0.000000,32.000000) scale(0.100000,-0.100000)"
fill="#000000" stroke="none">
<path d="M170 265 c-7 -9 -10 -18 -7 -22 8 -7 37 15 37 28 0 14 -16 11 -30 -6z"/>
<path d="M93 204 c-16 -25 -12 -66 10 -96 8 -9 30 -17 56 -19 35 -3 47 1 62
20 16 20 17 25 4 38 -17 17 -20 49 -5 58 22 13 -3 23 -56 23 -47 -1 -58 -4
-71 -24z"/>
<path d="M280 160 c0 -56 3 -70 15 -70 11 0 15 12 15 43 l1 42 14 -32 c8 -18
19 -33 25 -33 6 0 17 15 25 33 l14 32 1 -42 c0 -31 4 -43 15 -43 12 0 15 14
15 70 0 57 -3 70 -16 70 -9 0 -22 -17 -31 -40 -9 -22 -19 -40 -23 -40 -4 0
-14 18 -23 40 -9 23 -22 40 -31 40 -13 0 -16 -13 -16 -70z"/>
<path d="M450 171 c0 -64 13 -84 55 -84 42 1 55 20 55 84 0 45 -3 59 -15 59
-10 0 -15 -15 -17 -57 -3 -50 -6 -58 -23 -58 -17 0 -20 8 -23 58 -2 42 -7 57
-17 57 -12 0 -15 -14 -15 -59z"/>
<path d="M602 218 c-28 -28 -10 -60 41 -72 16 -4 27 -12 24 -19 -5 -15 -47
-22 -47 -8 0 6 -7 11 -15 11 -22 0 -18 -18 9 -35 18 -12 30 -13 50 -5 52 19
45 67 -12 82 -18 5 -32 13 -32 19 0 15 30 23 43 10 6 -6 17 -11 24 -11 11 0
11 5 3 20 -12 23 -68 28 -88 8z"/>
<path d="M730 160 c0 -56 3 -70 15 -70 12 0 15 14 15 70 0 56 -3 70 -15 70
-12 0 -15 -14 -15 -70z"/>
<path d="M807 212 c-17 -19 -22 -66 -11 -97 11 -27 53 -38 80 -20 13 8 24 22
24 30 0 20 -17 19 -28 -1 -16 -29 -47 -13 -50 27 -4 48 20 70 48 44 23 -21 39
-12 24 13 -16 25 -66 27 -87 4z"/>
</g>
</svg>
