<svg width="48" height="48" viewBox="0 0 48 48" fill="none" xmlns="http://www.w3.org/2000/svg">
<circle cx="24" cy="24" r="24" fill="#5D5FEF"/>
<g clip-path="url(#clip0_60_435)">
<path d="M12.9749 13.4248H35.0249C36.8859 13.4248 38.3999 14.9388 38.3999 16.7998V31.1998C38.3999 33.0608 36.8859 34.5748 35.0249 34.5748H12.9749C11.1139 34.5748 9.5999 33.0608 9.5999 31.1998V16.7998C9.5999 14.9388 11.1139 13.4248 12.9749 13.4248ZM11.8499 31.1998C11.8499 31.8201 12.3546 32.3248 12.9749 32.3248H35.0249C35.6452 32.3248 36.1499 31.8201 36.1499 31.1998V16.7998C36.1499 16.1795 35.6452 15.6748 35.0249 15.6748H12.9749C12.3546 15.6748 11.8499 16.1795 11.8499 16.7998V31.1998Z" fill="#F2C94C"/>
<path d="M12.0409 14.8271L23.9999 23.7224L35.9588 14.8271L37.3018 16.6325L23.9999 26.5265L10.698 16.6325L12.0409 14.8271Z" fill="#F2C94C"/>
</g>
<defs>
<clipPath id="clip0_60_435">
<rect width="28.8" height="28.8" fill="white" transform="matrix(-1 0 0 1 38.3999 9.59961)"/>
</clipPath>
</defs>
</svg>
