<svg width="48" height="48" viewBox="0 0 48 48" fill="none" xmlns="http://www.w3.org/2000/svg">
<circle cx="24" cy="24" r="24" fill="#5D5FEF"/>
<g clip-path="url(#clip0_60_430)">
<path d="M32.1992 36.0215C31.9893 36.0215 31.7807 35.9593 31.6018 35.838L24.8431 31.2535L21.2181 33.8618C20.9338 34.0663 20.5674 34.1178 20.2373 33.9997C19.9076 33.8814 19.6572 33.6083 19.5678 33.2697L17.7476 26.3718L11.244 23.885C10.8346 23.7284 10.5631 23.3367 10.5601 22.8983C10.5571 22.46 10.8232 22.0646 11.2307 21.9024L35.9598 12.0625C36.0721 12.0149 36.1908 11.9873 36.3105 11.98C36.3534 11.9774 36.3964 11.9774 36.4391 11.9798C36.6871 11.9946 36.9306 12.0956 37.1207 12.282C37.1405 12.3013 37.1592 12.321 37.1769 12.3416C37.3344 12.5215 37.4209 12.7408 37.4372 12.9642C37.4412 13.0204 37.4409 13.0773 37.436 13.1342C37.4326 13.1748 37.4267 13.2152 37.4185 13.2553L33.2444 35.1567C33.1773 35.5085 32.9378 35.803 32.607 35.9402C32.4757 35.9947 32.3371 36.0215 32.1992 36.0215ZM25.4366 29.0846L31.457 33.1683L34.7049 16.1266L22.9743 27.4144L25.4082 29.0655C25.418 29.0716 25.4273 29.0781 25.4366 29.0846ZM20.4248 28.1765L21.2309 31.2309L22.9676 29.9812L20.6935 28.4385C20.5878 28.367 20.4973 28.2779 20.4248 28.1765ZM14.5517 22.8712L19.0174 24.5786C19.3373 24.7009 19.5787 24.9699 19.6661 25.301L20.2324 27.4473C20.2584 27.1998 20.3706 26.9668 20.5529 26.7913L31.7305 16.0358L14.5517 22.8712Z" fill="#F2C94C"/>
</g>
<defs>
<clipPath id="clip0_60_430">
<rect width="26.88" height="26.88" fill="white" transform="translate(10.5601 10.5596)"/>
</clipPath>
</defs>
</svg>
