<svg width="48" height="48" viewBox="0 0 48 48" fill="none" xmlns="http://www.w3.org/2000/svg">
<circle cx="24" cy="24" r="24" fill="#5D5FEF"/>
<g clip-path="url(#clip0_60_426)">
<path d="M24.479 35.988C24.4764 35.988 24.4735 35.988 24.4706 35.988C23.5146 35.9815 15.0638 35.9044 12.6696 35.2569C10.9963 34.8071 9.6754 33.4876 9.22439 31.8141C8.5979 29.4621 8.63778 24.9339 8.64213 24.5723C8.63802 24.2124 8.59766 19.6467 9.22245 17.2754C9.22318 17.2732 9.22366 17.2708 9.22439 17.2686C9.67032 15.6142 11.0209 14.2539 12.6655 13.8029C12.6696 13.8017 12.6739 13.8007 12.678 13.7995C15.0452 13.1774 23.5127 13.1013 24.4706 13.0947H24.4877C25.4461 13.1013 33.9193 13.1784 36.2916 13.8268C37.9605 14.2754 39.2805 15.5932 39.7327 17.2645C40.3826 19.6375 40.3224 24.2132 40.3159 24.5994C40.3205 24.9798 40.3584 29.4675 39.7356 31.8313C39.7351 31.8337 39.7344 31.8359 39.7339 31.8381C39.2826 33.5116 37.962 34.831 36.2868 35.2813C36.2846 35.282 36.2822 35.2825 36.28 35.2832C33.913 35.9051 25.4453 35.9813 24.4877 35.988C24.4848 35.988 24.4819 35.988 24.479 35.988ZM11.6148 17.9101C11.0647 20.0032 11.1167 24.5107 11.1171 24.5561V24.5888C11.1007 25.8388 11.1585 29.459 11.615 31.1736C11.8364 31.9947 12.4878 32.6451 13.3139 32.8672C15.0805 33.345 21.9634 33.4954 24.479 33.513C27.0012 33.4954 33.8942 33.3492 35.6477 32.8904C36.4712 32.6676 37.1204 32.0193 37.3432 31.1973C37.8003 29.4576 37.8576 25.855 37.8409 24.6129C37.8409 24.5999 37.8409 24.5868 37.8411 24.5738C37.8639 23.3087 37.8191 19.6462 37.3454 17.9178C37.3449 17.9162 37.3444 17.9145 37.3442 17.9128C37.1218 17.0881 36.4702 16.4377 35.6441 16.2156C33.8947 15.7372 27.0007 15.5874 24.479 15.5697C21.9586 15.5874 15.0723 15.7334 13.3135 16.1916C12.503 16.4164 11.8369 17.09 11.6148 17.9101ZM38.5389 31.5161H38.5397H38.5389ZM21.3246 29.553V19.5295L29.9871 24.5414L21.3246 29.553Z" fill="#F2C94C"/>
</g>
<defs>
<clipPath id="clip0_60_426">
<rect width="31.68" height="31.68" fill="white" transform="translate(8.64014 8.63965)"/>
</clipPath>
</defs>
</svg>
